<svg version="1.1" id="Layer_1" xmlns="http://www.w3.org/2000/svg" xmlns:xlink="http://www.w3.org/1999/xlink" x="0px" y="0px"
	 width="100%" viewBox="0 0 305 278" enable-background="new 0 0 305 278" xml:space="preserve">
<path fill="#FEFEFE" opacity="1.000000" stroke="none" 
	d="
M173.000000,279.000000 
	C115.333344,279.000000 58.166679,279.000000 1.000015,279.000000 
	C1.000010,186.333359 1.000010,93.666702 1.000005,1.000040 
	C102.666634,1.000027 204.333267,1.000027 305.999939,1.000013 
	C305.999939,93.666626 305.999939,186.333252 305.999969,278.999939 
	C261.833344,279.000000 217.666672,279.000000 173.000000,279.000000 
M178.031326,153.667496 
	C179.825943,149.594269 181.411163,145.391876 177.230392,141.889496 
	C173.458206,138.729401 169.347244,139.846268 165.731552,142.247299 
	C160.884369,145.466095 158.633850,149.975388 159.402710,155.955826 
	C155.318665,156.282242 151.237595,156.785065 147.149200,156.854111 
	C145.343063,156.884598 143.522064,156.035446 141.922379,154.927017 
	C145.497375,150.521805 146.268036,145.783630 143.619186,142.763519 
	C140.460358,139.161926 136.548538,139.572113 132.671249,141.387619 
	C125.814590,144.598190 123.759384,151.166565 126.433678,157.924561 
	C112.237984,158.933640 98.048660,160.046234 83.844742,160.921814 
	C70.449745,161.747513 57.039295,162.322388 43.635838,163.011307 
	C41.962719,163.097290 40.290756,163.205673 38.618256,163.303665 
	C38.631214,163.865219 38.644173,164.426773 38.657131,164.988327 
	C40.502964,164.988327 42.348801,164.988312 44.194637,164.988312 
	C104.959969,164.988251 165.725296,164.988205 226.490631,164.988144 
	C236.646942,164.988129 236.570251,164.992004 236.043060,154.546844 
	C235.917435,152.057800 235.245056,150.812332 232.589767,150.995911 
	C225.980820,151.452820 219.367020,151.840454 212.754257,152.240860 
	C201.047379,152.949707 189.339798,153.647415 178.031326,153.667496 
M170.386169,208.929504 
	C169.759064,203.203461 169.057922,197.333374 162.765381,194.897766 
	C157.357681,192.804657 153.126312,195.506714 149.441238,199.303452 
	C149.264069,199.485977 148.848312,199.436981 148.143860,199.572998 
	C149.161774,194.407410 145.528061,195.324554 142.568954,195.238907 
	C139.308853,195.144516 136.466064,194.941208 135.700745,199.558060 
	C132.736298,217.441284 129.401230,235.262878 126.280640,253.120789 
	C126.068382,254.335419 126.300468,256.708801 126.639931,256.768860 
	C129.527130,257.279846 132.540024,257.781525 135.399475,257.405548 
	C136.552551,257.253967 137.967941,255.038620 138.313614,253.542847 
	C139.495377,248.429031 140.255127,243.217697 141.187744,237.976852 
	C154.673111,242.422211 163.290390,238.972198 167.522995,226.857941 
	C169.399933,221.485901 169.521149,215.500443 170.386169,208.929504 
M58.087784,176.763046 
	C54.586452,196.270935 51.054550,215.773514 47.655331,235.299179 
	C47.438004,236.547546 47.801815,238.599747 48.657681,239.211685 
	C52.534569,241.983566 58.771996,238.840881 60.107491,234.362076 
	C62.800667,225.329971 65.910614,216.413544 69.178299,207.571213 
	C69.632652,206.341705 71.956589,205.803116 73.415062,204.944687 
	C73.776352,206.452255 74.631020,208.033920 74.417580,209.455170 
	C73.180969,217.689590 71.638512,225.877594 70.326828,234.101593 
	C69.989616,236.215836 68.721718,239.469681 72.416992,239.477325 
	C75.653610,239.484039 80.740105,242.013351 81.839973,236.864960 
	C84.096550,226.302109 85.611465,215.566315 87.046906,204.850159 
	C87.571663,200.932648 86.507927,196.360687 82.309067,195.366135 
	C78.808426,194.536926 74.717110,195.788879 70.981133,196.568375 
	C69.482613,196.881042 68.234772,198.395157 66.287163,199.778366 
	C66.184891,198.059662 66.006195,197.388092 66.130180,196.778061 
	C67.319252,190.927399 68.715965,185.112396 69.666183,179.224716 
	C69.882416,177.884964 68.621307,175.052307 68.010612,175.043854 
	C64.827957,174.999847 61.635773,175.645966 58.087784,176.763046 
M258.388550,205.882446 
	C257.915253,200.535843 255.224701,196.871185 250.084579,195.188766 
	C240.537308,192.063828 230.631866,195.208405 226.056152,204.128967 
	C223.348434,209.407761 222.055344,215.688644 221.379639,221.660751 
	C220.598907,228.561218 222.500870,235.284836 229.524399,238.446350 
	C236.899979,241.766388 244.549484,240.820526 251.665131,237.229691 
	C255.344986,235.372711 253.599030,231.858765 252.605545,229.262497 
	C252.299377,228.462387 249.422989,228.362213 247.744720,228.434616 
	C244.952301,228.555099 242.169724,229.398285 239.396637,229.335419 
	C236.498291,229.269699 234.493561,227.756348 234.882828,224.384415 
	C256.246887,220.110092 257.493530,219.165359 258.388550,205.882446 
M114.245522,238.911087 
	C125.962624,232.775085 132.095398,215.778091 127.001068,203.540161 
	C125.077560,198.919388 121.733879,195.977905 116.820320,194.788773 
	C108.293625,192.725220 99.641563,195.766190 94.910561,203.096130 
	C89.692551,211.180664 88.305145,220.128754 90.689003,229.448456 
	C92.299110,235.743195 96.664444,239.467941 103.157417,239.950348 
	C106.574715,240.204254 110.065178,239.473373 114.245522,238.911087 
M27.982841,240.185455 
	C29.477926,240.187820 30.979403,240.281586 32.467056,240.177612 
	C41.786186,239.526276 46.211514,234.573044 46.133305,225.301025 
	C46.076366,218.550262 41.683186,215.037216 36.869438,211.466568 
	C34.876762,209.988480 31.946585,206.370819 32.452900,205.522278 
	C34.533791,202.034790 37.854153,203.908035 40.740883,205.192261 
	C40.891487,205.259247 41.026867,205.361267 41.167332,205.450150 
	C44.485405,207.550095 45.813236,205.288605 47.351040,202.854279 
	C49.149281,200.007660 48.397976,197.665543 45.594086,196.892715 
	C41.043976,195.638535 36.260201,194.498047 31.596670,194.577515 
	C25.926565,194.674133 21.477930,197.666656 19.703310,203.538544 
	C17.948040,209.346420 19.637907,214.494263 24.732180,218.559036 
	C26.807209,220.214706 29.281300,221.424683 31.144894,223.270493 
	C32.261864,224.376816 32.549622,226.320312 33.210075,227.887543 
	C31.492142,228.524414 29.665251,229.876450 28.081118,229.635101 
	C25.532164,229.246780 23.196058,227.625580 20.664116,226.889603 
	C19.462168,226.540207 17.545794,226.513412 16.757566,227.227951 
	C12.181508,231.376083 12.891773,235.455246 18.565205,237.707962 
	C21.314087,238.799438 24.287426,239.325623 27.982841,240.185455 
M200.078674,215.533005 
	C196.601624,219.781311 192.907959,223.875992 189.739761,228.343323 
	C188.178757,230.544434 187.231567,233.368790 186.739655,236.045822 
	C186.548279,237.087311 188.340424,239.547562 189.287933,239.578857 
	C197.600266,239.853470 205.930313,239.881683 214.245682,239.647644 
	C218.198715,239.536346 218.335876,235.898590 218.123611,233.285583 
	C218.034286,232.185913 215.310242,230.653641 213.650726,230.460159 
	C209.977798,230.031921 206.220520,230.326859 201.670547,230.326859 
	C208.585373,221.717545 214.946274,214.084991 220.924164,206.163376 
	C222.518982,204.050018 223.253937,201.107071 223.725540,198.429062 
	C223.881378,197.544037 221.998917,195.387924 220.999481,195.356216 
	C213.185837,195.108444 205.349808,195.001099 197.542862,195.348770 
	C193.683929,195.520615 193.771362,199.305481 193.871338,201.921143 
	C193.909180,202.910858 196.510406,204.397049 198.084015,204.608383 
	C201.239944,205.032227 204.492798,204.734283 208.748474,204.734283 
	C205.469208,208.831299 203.003448,211.911942 200.078674,215.533005 
M287.666809,194.691879 
	C283.918945,195.522110 280.171082,196.352341 276.157379,197.241455 
	C275.263489,193.393768 270.997314,195.458008 267.719849,195.267349 
	C264.176270,195.061203 264.095215,197.973511 263.658142,200.419113 
	C261.584808,212.019867 259.450409,223.610657 257.538025,235.237915 
	C257.322021,236.551346 257.943329,238.833740 258.900757,239.367584 
	C263.486145,241.924255 268.736969,239.013000 270.076599,234.022812 
	C272.177460,226.197235 274.468933,218.399765 277.242493,210.795670 
	C277.859344,209.104477 281.200653,206.905762 282.618134,207.306808 
	C286.022369,208.269989 287.546997,206.896866 288.271606,204.324142 
	C289.122528,201.303024 293.692474,198.106583 287.666809,194.691879 
M177.305756,239.750565 
	C180.456406,240.044495 182.862976,239.355927 183.488998,235.671295 
	C185.545624,223.566467 187.726273,211.482483 189.725739,199.368469 
	C189.910355,198.249985 189.536606,196.504745 188.753937,195.853043 
	C185.228958,192.918030 178.053391,195.813599 177.224503,200.404556 
	C175.219986,211.507050 173.260132,222.617706 171.320847,233.731827 
	C170.378220,239.134140 170.790710,239.579605 177.305756,239.750565 
M113.070312,126.629692 
	C113.632385,126.024567 114.261765,125.468628 114.745605,124.806343 
	C117.935669,120.439690 118.182266,115.929016 115.429840,113.006493 
	C112.617989,110.020866 107.352013,109.979668 103.112541,112.910110 
	C97.993584,116.448486 95.896721,122.545357 98.411446,126.579102 
	C101.000542,130.732132 106.167542,130.925934 113.070312,126.629692 
M138.738770,129.852783 
	C140.207504,129.628510 141.743729,129.606720 143.132935,129.143799 
	C148.268356,127.432518 152.208664,122.163498 151.808533,117.542274 
	C151.503586,114.020294 149.646271,111.673775 146.066101,110.927422 
	C141.439209,109.962852 135.756149,112.972809 133.217239,117.708389 
	C130.265686,123.213638 131.963303,127.542725 138.738770,129.852783 
M178.470673,111.090759 
	C171.644363,110.429176 166.130066,113.514046 164.167877,119.275902 
	C163.026215,122.628372 163.066330,125.913887 166.154907,128.356308 
	C170.144287,131.511063 177.328644,129.630035 181.059723,124.539536 
	C184.742737,119.514626 184.074585,114.859360 178.470673,111.090759 
M207.247757,86.599953 
	C203.535019,89.853333 200.760361,93.767067 202.993774,98.711861 
	C203.875824,100.664703 206.801834,102.575264 209.014893,102.869980 
	C214.271393,103.570000 218.087463,100.572403 220.831696,96.212990 
	C221.006775,95.934830 221.264679,95.609764 221.244751,95.323166 
	C221.038330,92.353966 221.758026,88.659821 220.249084,86.639305 
	C218.909958,84.846176 215.114700,84.573006 212.337433,84.298538 
	C210.913086,84.157784 209.344040,85.481133 207.247757,86.599953 
M119.655731,45.473019 
	C122.266335,49.674164 126.215233,49.756184 130.179550,48.378418 
	C134.856949,46.752815 138.039627,43.376183 138.740234,38.301647 
	C139.452408,33.143452 136.089676,29.807838 130.770157,29.954473 
	C123.768913,30.147461 116.853561,37.702614 119.655731,45.473019 
M213.735489,122.929230 
	C214.123932,121.836983 214.694870,120.772835 214.868118,119.647453 
	C215.504349,115.514435 214.132080,112.373207 209.916977,111.083725 
	C204.786728,109.514267 198.155487,113.317825 195.899734,118.973946 
	C194.222473,123.179489 195.262817,127.456993 198.781784,128.894043 
	C200.661484,129.661652 203.328674,130.189957 204.994919,129.423279 
	C208.029724,128.026917 210.583633,125.585426 213.735489,122.929230 
M178.692886,84.846764 
	C176.412613,86.935402 173.617783,88.687225 171.976715,91.194283 
	C169.706711,94.662170 169.786423,98.561584 173.312393,101.536003 
	C176.344193,104.093575 181.697906,103.434219 185.771866,100.209641 
	C189.880173,96.957878 191.731949,91.601776 189.793930,87.864517 
	C187.494278,83.429893 183.590118,83.465210 178.692886,84.846764 
M217.687408,57.939720 
	C216.666489,58.491768 215.571228,58.940510 214.636978,59.612976 
	C209.386200,63.392498 207.758438,70.080322 211.116608,73.853607 
	C214.286987,77.415909 220.933197,76.809631 225.456512,72.539780 
	C225.818436,72.198143 226.186020,71.850853 226.485474,71.456467 
	C229.057434,68.069183 230.541519,64.314232 228.151321,60.391438 
	C225.920624,56.730423 222.260345,56.499893 217.687408,57.939720 
M95.702995,30.872005 
	C93.469833,32.985760 90.727577,34.774185 89.120987,37.288334 
	C86.614037,41.211422 87.714203,45.839981 90.881256,47.937870 
	C94.065155,50.046921 99.690155,49.162872 103.307945,45.984848 
	C107.236343,42.533970 108.905151,37.638542 107.125320,34.053127 
	C104.794792,29.358349 100.744049,29.457422 95.702995,30.872005 
M139.096542,94.778198 
	C138.807144,98.737663 140.203812,101.660759 144.240952,102.797905 
	C148.732239,104.062958 154.614883,101.295525 157.361740,96.569084 
	C159.338928,93.167007 160.168900,89.250961 157.081802,86.446930 
	C155.292725,84.821907 151.891373,83.955635 149.429520,84.295891 
	C144.045776,85.039986 140.668427,88.705750 139.096542,94.778198 
M107.740486,88.246437 
	C106.749023,90.137184 105.395302,91.927956 104.840225,93.939148 
	C103.620377,98.358894 106.070526,102.104973 110.332573,102.932449 
	C115.139381,103.865707 121.018913,100.562492 123.306595,95.563042 
	C124.967720,91.932846 125.105324,88.406670 121.831650,85.544250 
	C118.698936,82.805084 113.688202,83.568527 108.619514,87.373329 
	C108.487206,87.472649 108.375015,87.598778 107.740486,88.246437 
M70.701195,17.412426 
	C68.939026,20.890680 68.009323,24.790188 71.265625,27.435965 
	C73.257416,29.054310 76.776192,29.830267 79.375496,29.437613 
	C84.082077,28.726633 87.551521,25.362602 88.571304,20.724882 
	C89.100494,18.318247 88.557755,14.593308 86.964836,13.092424 
	C85.201744,11.431195 81.399857,10.610047 79.006012,11.280455 
	C76.080582,12.099737 73.695915,14.849958 70.701195,17.412426 
M116.269112,75.791054 
	C123.405022,76.547600 129.081116,73.436722 130.949966,67.578758 
	C132.093445,63.994427 131.883240,60.610012 128.366745,58.300110 
	C124.292084,55.623562 117.451927,57.666210 113.936005,62.529606 
	C110.417282,67.396889 110.954025,71.728294 116.269112,75.791054 
M197.725388,64.469734 
	C197.648422,60.376408 195.537506,57.921597 191.572067,57.209518 
	C184.995728,56.028603 177.686066,62.466274 177.854111,69.184044 
	C177.956924,73.293442 180.550507,75.895782 184.773834,76.127129 
	C190.789520,76.456665 195.671494,72.338379 197.725388,64.469734 
M146.118118,68.592827 
	C147.109253,74.759262 150.270676,77.236435 155.973740,75.916321 
	C160.861053,74.785034 164.285889,71.691292 165.687729,66.829811 
	C167.425491,60.803303 163.002396,55.968227 156.857681,57.258640 
	C151.167999,58.453491 147.430679,61.948437 146.118118,68.592827 
M182.180099,187.404694 
	C186.052322,189.879532 189.617233,189.161987 192.305313,185.744598 
	C194.597977,182.829956 194.362427,179.514191 191.849335,176.643341 
	C189.136459,173.544250 184.635086,173.311981 181.617889,175.998734 
	C178.321579,178.934021 178.316574,182.668274 182.180099,187.404694 
z"/>
<path fill="#1A6186" opacity="1.000000" stroke="none" 
	d="
M170.412750,209.361465 
	C169.521149,215.500443 169.399933,221.485901 167.522995,226.857941 
	C163.290390,238.972198 154.673111,242.422211 141.187744,237.976852 
	C140.255127,243.217697 139.495377,248.429031 138.313614,253.542847 
	C137.967941,255.038620 136.552551,257.253967 135.399475,257.405548 
	C132.540024,257.781525 129.527130,257.279846 126.639931,256.768860 
	C126.300468,256.708801 126.068382,254.335419 126.280640,253.120789 
	C129.401230,235.262878 132.736298,217.441284 135.700745,199.558060 
	C136.466064,194.941208 139.308853,195.144516 142.568954,195.238907 
	C145.528061,195.324554 149.161774,194.407410 148.143860,199.572998 
	C148.848312,199.436981 149.264069,199.485977 149.441238,199.303452 
	C153.126312,195.506714 157.357681,192.804657 162.765381,194.897766 
	C169.057922,197.333374 169.759064,203.203461 170.412750,209.361465 
M143.084610,227.250839 
	C146.459793,231.101776 151.229233,231.252808 153.354324,226.516937 
	C155.711548,221.263794 156.491623,215.246979 157.492050,209.481750 
	C157.731201,208.103577 156.120880,206.404465 155.361191,204.852951 
	C153.720566,205.770447 151.213959,206.294937 150.588501,207.673126 
	C147.809494,213.796722 145.569458,220.164932 143.084610,227.250839 
z"/>
<path fill="#1A6186" opacity="1.000000" stroke="none" 
	d="
M58.267342,176.407501 
	C61.635773,175.645966 64.827957,174.999847 68.010612,175.043854 
	C68.621307,175.052307 69.882416,177.884964 69.666183,179.224716 
	C68.715965,185.112396 67.319252,190.927399 66.130180,196.778061 
	C66.006195,197.388092 66.184891,198.059662 66.287163,199.778366 
	C68.234772,198.395157 69.482613,196.881042 70.981133,196.568375 
	C74.717110,195.788879 78.808426,194.536926 82.309067,195.366135 
	C86.507927,196.360687 87.571663,200.932648 87.046906,204.850159 
	C85.611465,215.566315 84.096550,226.302109 81.839973,236.864960 
	C80.740105,242.013351 75.653610,239.484039 72.416992,239.477325 
	C68.721718,239.469681 69.989616,236.215836 70.326828,234.101593 
	C71.638512,225.877594 73.180969,217.689590 74.417580,209.455170 
	C74.631020,208.033920 73.776352,206.452255 73.415054,204.944672 
	C71.956589,205.803116 69.632652,206.341705 69.178299,207.571213 
	C65.910614,216.413544 62.800667,225.329971 60.107491,234.362076 
	C58.771996,238.840881 52.534569,241.983566 48.657681,239.211685 
	C47.801815,238.599747 47.438004,236.547546 47.655331,235.299179 
	C51.054550,215.773514 54.586452,196.270935 58.267342,176.407501 
z"/>
<path fill="#E9E9EA" opacity="1.000000" stroke="none" 
	d="
M141.707809,155.585632 
	C143.522064,156.035446 145.343063,156.884598 147.149200,156.854111 
	C151.237595,156.785065 155.318665,156.282242 160.163086,156.136108 
	C166.059387,160.845932 170.048813,160.376373 177.632523,154.349777 
	C189.339798,153.647415 201.047379,152.949707 212.754257,152.240860 
	C219.367020,151.840454 225.980820,151.452820 232.589767,150.995911 
	C235.245056,150.812332 235.917435,152.057800 236.043060,154.546844 
	C236.570251,164.992004 236.646942,164.988129 226.490631,164.988144 
	C165.725296,164.988205 104.959969,164.988251 44.194637,164.988312 
	C42.348801,164.988312 40.502964,164.988327 38.657131,164.988327 
	C38.644173,164.426773 38.631214,163.865219 38.618256,163.303665 
	C40.290756,163.205673 41.962719,163.097290 43.635838,163.011307 
	C57.039295,162.322388 70.449745,161.747513 83.844742,160.921814 
	C98.048660,160.046234 112.237984,158.933640 127.283585,157.983170 
	C133.256973,160.531921 137.620438,158.821686 141.707809,155.585632 
z"/>
<path fill="#F89C30" opacity="1.000000" stroke="none" 
	d="
M258.411133,206.275909 
	C257.493530,219.165359 256.246887,220.110092 234.882828,224.384415 
	C234.493561,227.756348 236.498291,229.269699 239.396637,229.335419 
	C242.169724,229.398285 244.952301,228.555099 247.744720,228.434616 
	C249.422989,228.362213 252.299377,228.462387 252.605545,229.262497 
	C253.599030,231.858765 255.344986,235.372711 251.665131,237.229691 
	C244.549484,240.820526 236.899979,241.766388 229.524399,238.446350 
	C222.500870,235.284836 220.598907,228.561218 221.379639,221.660751 
	C222.055344,215.688644 223.348434,209.407761 226.056152,204.128967 
	C230.631866,195.208405 240.537308,192.063828 250.084579,195.188766 
	C255.224701,196.871185 257.915253,200.535843 258.411133,206.275909 
M240.660400,214.510559 
	C241.868576,213.973343 243.540634,213.757095 244.183151,212.828506 
	C245.329285,211.172043 246.267654,209.125748 246.459564,207.161072 
	C246.552658,206.207993 244.678436,204.132584 243.837585,204.205750 
	C241.889374,204.375244 239.374405,205.029907 238.279785,206.423203 
	C236.495209,208.694733 235.660812,211.712738 234.019455,215.304138 
	C236.974319,215.025345 238.428009,214.888168 240.660400,214.510559 
z"/>
<path fill="#1A6086" opacity="1.000000" stroke="none" 
	d="
M113.884064,239.049133 
	C110.065178,239.473373 106.574715,240.204254 103.157417,239.950348 
	C96.664444,239.467941 92.299110,235.743195 90.689003,229.448456 
	C88.305145,220.128754 89.692551,211.180664 94.910561,203.096130 
	C99.641563,195.766190 108.293625,192.725220 116.820320,194.788773 
	C121.733879,195.977905 125.077560,198.919388 127.001068,203.540161 
	C132.095398,215.778091 125.962624,232.775085 113.884064,239.049133 
M113.285164,225.597137 
	C114.247925,220.638184 115.689857,215.702744 115.935120,210.708557 
	C116.031799,208.739792 113.759750,205.355591 112.020294,204.948364 
	C110.149857,204.510498 106.395691,206.278137 105.650482,208.019440 
	C103.755951,212.446289 102.493057,217.356186 102.170715,222.152924 
	C102.010841,224.531937 103.925491,228.070374 105.955147,229.213181 
	C107.279381,229.958801 110.497108,227.341568 113.285164,225.597137 
z"/>
<path fill="#1C6287" opacity="1.000000" stroke="none" 
	d="
M27.570992,240.146591 
	C24.287426,239.325623 21.314087,238.799438 18.565205,237.707962 
	C12.891773,235.455246 12.181508,231.376083 16.757566,227.227951 
	C17.545794,226.513412 19.462168,226.540207 20.664116,226.889603 
	C23.196058,227.625580 25.532164,229.246780 28.081118,229.635101 
	C29.665251,229.876450 31.492142,228.524414 33.210075,227.887543 
	C32.549622,226.320312 32.261864,224.376816 31.144894,223.270493 
	C29.281300,221.424683 26.807209,220.214706 24.732180,218.559036 
	C19.637907,214.494263 17.948040,209.346420 19.703310,203.538544 
	C21.477930,197.666656 25.926565,194.674133 31.596670,194.577515 
	C36.260201,194.498047 41.043976,195.638535 45.594086,196.892715 
	C48.397976,197.665543 49.149281,200.007660 47.351040,202.854279 
	C45.813236,205.288605 44.485405,207.550095 41.167332,205.450150 
	C41.026867,205.361267 40.891487,205.259247 40.740883,205.192261 
	C37.854153,203.908035 34.533791,202.034790 32.452900,205.522278 
	C31.946585,206.370819 34.876762,209.988480 36.869438,211.466568 
	C41.683186,215.037216 46.076366,218.550262 46.133305,225.301025 
	C46.211514,234.573044 41.786186,239.526276 32.467056,240.177612 
	C30.979403,240.281586 29.477926,240.187820 27.570992,240.146591 
z"/>
<path fill="#F89F36" opacity="1.000000" stroke="none" 
	d="
M200.308182,215.262802 
	C203.003448,211.911942 205.469208,208.831299 208.748474,204.734283 
	C204.492798,204.734283 201.239944,205.032227 198.084015,204.608383 
	C196.510406,204.397049 193.909180,202.910858 193.871338,201.921143 
	C193.771362,199.305481 193.683929,195.520615 197.542862,195.348770 
	C205.349808,195.001099 213.185837,195.108444 220.999481,195.356216 
	C221.998917,195.387924 223.881378,197.544037 223.725540,198.429062 
	C223.253937,201.107071 222.518982,204.050018 220.924164,206.163376 
	C214.946274,214.084991 208.585373,221.717545 201.670547,230.326859 
	C206.220520,230.326859 209.977798,230.031921 213.650726,230.460159 
	C215.310242,230.653641 218.034286,232.185913 218.123611,233.285583 
	C218.335876,235.898590 218.198715,239.536346 214.245682,239.647644 
	C205.930313,239.881683 197.600266,239.853470 189.287933,239.578857 
	C188.340424,239.547562 186.548279,237.087311 186.739655,236.045822 
	C187.231567,233.368790 188.178757,230.544434 189.739761,228.343323 
	C192.907959,223.875992 196.601624,219.781311 200.308182,215.262802 
z"/>
<path fill="#F89D32" opacity="1.000000" stroke="none" 
	d="
M288.024963,194.828568 
	C293.692474,198.106583 289.122528,201.303024 288.271606,204.324142 
	C287.546997,206.896866 286.022369,208.269989 282.618134,207.306808 
	C281.200653,206.905762 277.859344,209.104477 277.242493,210.795670 
	C274.468933,218.399765 272.177460,226.197235 270.076599,234.022812 
	C268.736969,239.013000 263.486145,241.924255 258.900757,239.367584 
	C257.943329,238.833740 257.322021,236.551346 257.538025,235.237915 
	C259.450409,223.610657 261.584808,212.019867 263.658142,200.419113 
	C264.095215,197.973511 264.176270,195.061203 267.719849,195.267349 
	C270.997314,195.458008 275.263489,193.393768 276.157379,197.241455 
	C280.171082,196.352341 283.918945,195.522110 288.024963,194.828568 
z"/>
<path fill="#F89D32" opacity="1.000000" stroke="none" 
	d="
M176.870834,239.750290 
	C170.790710,239.579605 170.378220,239.134140 171.320847,233.731827 
	C173.260132,222.617706 175.219986,211.507050 177.224503,200.404556 
	C178.053391,195.813599 185.228958,192.918030 188.753937,195.853043 
	C189.536606,196.504745 189.910355,198.249985 189.725739,199.368469 
	C187.726273,211.482483 185.545624,223.566467 183.488998,235.671295 
	C182.862976,239.355927 180.456406,240.044495 176.870834,239.750290 
z"/>
<path fill="#1D6287" opacity="1.000000" stroke="none" 
	d="
M112.790215,126.868790 
	C106.167542,130.925934 101.000542,130.732132 98.411446,126.579102 
	C95.896721,122.545357 97.993584,116.448486 103.112541,112.910110 
	C107.352013,109.979668 112.617989,110.020866 115.429840,113.006493 
	C118.182266,115.929016 117.935669,120.439690 114.745605,124.806343 
	C114.261765,125.468628 113.632385,126.024567 112.790215,126.868790 
z"/>
<path fill="#1C6287" opacity="1.000000" stroke="none" 
	d="
M138.345459,129.817856 
	C131.963303,127.542725 130.265686,123.213638 133.217239,117.708389 
	C135.756149,112.972809 141.439209,109.962852 146.066101,110.927422 
	C149.646271,111.673775 151.503586,114.020294 151.808533,117.542274 
	C152.208664,122.163498 148.268356,127.432518 143.132935,129.143799 
	C141.743729,129.606720 140.207504,129.628510 138.345459,129.817856 
z"/>
<path fill="#1B6186" opacity="1.000000" stroke="none" 
	d="
M178.816559,111.205780 
	C184.074585,114.859360 184.742737,119.514626 181.059723,124.539536 
	C177.328644,129.630035 170.144287,131.511063 166.154907,128.356308 
	C163.066330,125.913887 163.026215,122.628372 164.167877,119.275902 
	C166.130066,113.514046 171.644363,110.429176 178.816559,111.205780 
z"/>
<path fill="#1E6388" opacity="1.000000" stroke="none" 
	d="
M207.544067,86.371384 
	C209.344040,85.481133 210.913086,84.157784 212.337433,84.298538 
	C215.114700,84.573006 218.909958,84.846176 220.249084,86.639305 
	C221.758026,88.659821 221.038330,92.353966 221.244751,95.323166 
	C221.264679,95.609764 221.006775,95.934830 220.831696,96.212990 
	C218.087463,100.572403 214.271393,103.570000 209.014893,102.869980 
	C206.801834,102.575264 203.875824,100.664703 202.993774,98.711861 
	C200.760361,93.767067 203.535019,89.853333 207.544067,86.371384 
z"/>
<path fill="#F89E34" opacity="1.000000" stroke="none" 
	d="
M119.484665,45.103783 
	C116.853561,37.702614 123.768913,30.147461 130.770157,29.954473 
	C136.089676,29.807838 139.452408,33.143452 138.740234,38.301647 
	C138.039627,43.376183 134.856949,46.752815 130.179550,48.378418 
	C126.215233,49.756184 122.266335,49.674164 119.484665,45.103783 
z"/>
<path fill="#1C6287" opacity="1.000000" stroke="none" 
	d="
M213.536835,123.254616 
	C210.583633,125.585426 208.029724,128.026917 204.994919,129.423279 
	C203.328674,130.189957 200.661484,129.661652 198.781784,128.894043 
	C195.262817,127.456993 194.222473,123.179489 195.899734,118.973946 
	C198.155487,113.317825 204.786728,109.514267 209.916977,111.083725 
	C214.132080,112.373207 215.504349,115.514435 214.868118,119.647453 
	C214.694870,120.772835 214.123932,121.836983 213.536835,123.254616 
z"/>
<path fill="#1B6186" opacity="1.000000" stroke="none" 
	d="
M179.062897,84.701324 
	C183.590118,83.465210 187.494278,83.429893 189.793930,87.864517 
	C191.731949,91.601776 189.880173,96.957878 185.771866,100.209641 
	C181.697906,103.434219 176.344193,104.093575 173.312393,101.536003 
	C169.786423,98.561584 169.706711,94.662170 171.976715,91.194283 
	C173.617783,88.687225 176.412613,86.935402 179.062897,84.701324 
z"/>
<path fill="#F89D32" opacity="1.000000" stroke="none" 
	d="
M177.831924,154.008636 
	C170.048813,160.376373 166.059387,160.845932 160.646057,156.113831 
	C158.633850,149.975388 160.884369,145.466095 165.731552,142.247299 
	C169.347244,139.846268 173.458206,138.729401 177.230392,141.889496 
	C181.411163,145.391876 179.825943,149.594269 177.831924,154.008636 
z"/>
<path fill="#1A6086" opacity="1.000000" stroke="none" 
	d="
M218.060730,57.820751 
	C222.260345,56.499893 225.920624,56.730423 228.151321,60.391438 
	C230.541519,64.314232 229.057434,68.069183 226.485474,71.456467 
	C226.186020,71.850853 225.818436,72.198143 225.456512,72.539780 
	C220.933197,76.809631 214.286987,77.415909 211.116608,73.853607 
	C207.758438,70.080322 209.386200,63.392498 214.636978,59.612976 
	C215.571228,58.940510 216.666489,58.491768 218.060730,57.820751 
z"/>
<path fill="#F89E33" opacity="1.000000" stroke="none" 
	d="
M96.070328,30.717737 
	C100.744049,29.457422 104.794792,29.358349 107.125320,34.053127 
	C108.905151,37.638542 107.236343,42.533970 103.307945,45.984848 
	C99.690155,49.162872 94.065155,50.046921 90.881256,47.937870 
	C87.714203,45.839981 86.614037,41.211422 89.120987,37.288334 
	C90.727577,34.774185 93.469833,32.985760 96.070328,30.717737 
z"/>
<path fill="#1D6387" opacity="1.000000" stroke="none" 
	d="
M139.143250,94.384125 
	C140.668427,88.705750 144.045776,85.039986 149.429520,84.295891 
	C151.891373,83.955635 155.292725,84.821907 157.081802,86.446930 
	C160.168900,89.250961 159.338928,93.167007 157.361740,96.569084 
	C154.614883,101.295525 148.732239,104.062958 144.240952,102.797905 
	C140.203812,101.660759 138.807144,98.737663 139.143250,94.384125 
z"/>
<path fill="#1B6186" opacity="1.000000" stroke="none" 
	d="
M107.996964,87.979424 
	C108.375015,87.598778 108.487206,87.472649 108.619514,87.373329 
	C113.688202,83.568527 118.698936,82.805084 121.831650,85.544250 
	C125.105324,88.406670 124.967720,91.932846 123.306595,95.563042 
	C121.018913,100.562492 115.139381,103.865707 110.332573,102.932449 
	C106.070526,102.104973 103.620377,98.358894 104.840225,93.939148 
	C105.395302,91.927956 106.749023,90.137184 107.996964,87.979424 
z"/>
<path fill="#F89D32" opacity="1.000000" stroke="none" 
	d="
M70.889297,17.088799 
	C73.695915,14.849958 76.080582,12.099737 79.006012,11.280455 
	C81.399857,10.610047 85.201744,11.431195 86.964836,13.092424 
	C88.557755,14.593308 89.100494,18.318247 88.571304,20.724882 
	C87.551521,25.362602 84.082077,28.726633 79.375496,29.437613 
	C76.776192,29.830267 73.257416,29.054310 71.265625,27.435965 
	C68.009323,24.790188 68.939026,20.890680 70.889297,17.088799 
z"/>
<path fill="#1B6186" opacity="1.000000" stroke="none" 
	d="
M115.903992,75.627663 
	C110.954025,71.728294 110.417282,67.396889 113.936005,62.529606 
	C117.451927,57.666210 124.292084,55.623562 128.366745,58.300110 
	C131.883240,60.610012 132.093445,63.994427 130.949966,67.578758 
	C129.081116,73.436722 123.405022,76.547600 115.903992,75.627663 
z"/>
<path fill="#1B6186" opacity="1.000000" stroke="none" 
	d="
M197.705017,64.852844 
	C195.671494,72.338379 190.789520,76.456665 184.773834,76.127129 
	C180.550507,75.895782 177.956924,73.293442 177.854111,69.184044 
	C177.686066,62.466274 184.995728,56.028603 191.572067,57.209518 
	C195.537506,57.921597 197.648422,60.376408 197.705017,64.852844 
z"/>
<path fill="#1B6186" opacity="1.000000" stroke="none" 
	d="
M146.157410,68.200928 
	C147.430679,61.948437 151.167999,58.453491 156.857681,57.258640 
	C163.002396,55.968227 167.425491,60.803303 165.687729,66.829811 
	C164.285889,71.691292 160.861053,74.785034 155.973740,75.916321 
	C150.270676,77.236435 147.109253,74.759262 146.157410,68.200928 
z"/>
<path fill="#F89C30" opacity="1.000000" stroke="none" 
	d="
M141.815094,155.256317 
	C137.620438,158.821686 133.256973,160.531921 127.764832,157.948608 
	C123.759384,151.166565 125.814590,144.598190 132.671249,141.387619 
	C136.548538,139.572113 140.460358,139.161926 143.619186,142.763519 
	C146.268036,145.783630 145.497375,150.521805 141.815094,155.256317 
z"/>
<path fill="#F8A037" opacity="1.000000" stroke="none" 
	d="
M181.891678,187.153442 
	C178.316574,182.668274 178.321579,178.934021 181.617889,175.998734 
	C184.635086,173.311981 189.136459,173.544250 191.849335,176.643341 
	C194.362427,179.514191 194.597977,182.829956 192.305313,185.744598 
	C189.617233,189.161987 186.052322,189.879532 181.891678,187.153442 
z"/>
<path fill="#F1F5F7" opacity="1.000000" stroke="none" 
	d="
M143.109558,226.847748 
	C145.569458,220.164932 147.809494,213.796722 150.588501,207.673126 
	C151.213959,206.294937 153.720566,205.770447 155.361191,204.852951 
	C156.120880,206.404465 157.731201,208.103577 157.492050,209.481750 
	C156.491623,215.246979 155.711548,221.263794 153.354324,226.516937 
	C151.229233,231.252808 146.459793,231.101776 143.109558,226.847748 
z"/>
<path fill="#FEF7EE" opacity="1.000000" stroke="none" 
	d="
M240.271057,214.630783 
	C238.428009,214.888168 236.974319,215.025345 234.019455,215.304138 
	C235.660812,211.712738 236.495209,208.694733 238.279785,206.423203 
	C239.374405,205.029907 241.889374,204.375244 243.837585,204.205750 
	C244.678436,204.132584 246.552658,206.207993 246.459564,207.161072 
	C246.267654,209.125748 245.329285,211.172043 244.183151,212.828506 
	C243.540634,213.757095 241.868576,213.973343 240.271057,214.630783 
z"/>
<path fill="#F3F7F9" opacity="1.000000" stroke="none" 
	d="
M113.075897,225.913940 
	C110.497108,227.341568 107.279381,229.958801 105.955147,229.213181 
	C103.925491,228.070374 102.010841,224.531937 102.170715,222.152924 
	C102.493057,217.356186 103.755951,212.446289 105.650482,208.019440 
	C106.395691,206.278137 110.149857,204.510498 112.020294,204.948364 
	C113.759750,205.355591 116.031799,208.739792 115.935120,210.708557 
	C115.689857,215.702744 114.247925,220.638184 113.075897,225.913940 
z"/>
</svg>